<?xml version="1.0" encoding="UTF-8" standalone="no"?>
<svg
   xmlns:dc="http://purl.org/dc/elements/1.1/"
   xmlns:cc="http://creativecommons.org/ns#"
   xmlns:rdf="http://www.w3.org/1999/02/22-rdf-syntax-ns#"
   xmlns:svg="http://www.w3.org/2000/svg"
   xmlns="http://www.w3.org/2000/svg"
   xmlns:sodipodi="http://sodipodi.sourceforge.net/DTD/sodipodi-0.dtd"
   xmlns:inkscape="http://www.inkscape.org/namespaces/inkscape"
   version="1.1"
   id="svg833"
   xml:space="preserve"
   width="1056"
   height="816"
   viewBox="0 0 1056 816"
   sodipodi:docname="bundesliga.svg"
   inkscape:version="1.0.1 (c497b03c, 2020-09-10)"><metadata
     id="metadata839"><rdf:RDF><cc:Work
         rdf:about=""><dc:format>image/svg+xml</dc:format><dc:type
           rdf:resource="http://purl.org/dc/dcmitype/StillImage" /><dc:title></dc:title></cc:Work></rdf:RDF></metadata><defs
     id="defs837"><clipPath
       clipPathUnits="userSpaceOnUse"
       id="clipPath849"><path
         d="M 0,612 H 792 V 0 H 0 Z"
         id="path847" /></clipPath></defs><sodipodi:namedview
     pagecolor="#ffffff"
     bordercolor="#666666"
     borderopacity="1"
     objecttolerance="10"
     gridtolerance="10"
     guidetolerance="10"
     inkscape:pageopacity="0"
     inkscape:pageshadow="2"
     inkscape:window-width="820"
     inkscape:window-height="480"
     id="namedview835"
     showgrid="false"
     inkscape:zoom="0.63257576"
     inkscape:cx="528"
     inkscape:cy="408"
     inkscape:window-x="0"
     inkscape:window-y="25"
     inkscape:window-maximized="0"
     inkscape:current-layer="g841" /><g
     id="g841"
     inkscape:groupmode="layer"
     inkscape:label="bundesliga"
     transform="matrix(1.3333333,0,0,-1.3333333,0,816)"><g
       id="g843"><g
         id="g845"
         clip-path="url(#clipPath849)"><g
           id="g851"
           transform="translate(346.7148,297.1191)"><path
             d="m 0,0 c 0.606,-1.755 1.383,-4.006 2.307,-6.698 -3.983,2.042 -16.838,-3.697 -21.42,-5.237 0,0 -2.529,2.329 -4.102,3.044 -0.848,0.388 -2.667,0.121 -3.675,-0.715 -0.268,0.171 -0.616,0.63 -1.196,-0.223 -0.376,-0.553 -0.19,-0.673 0.204,-0.94 -0.172,-0.271 -0.491,-0.814 -0.652,-1.158 -0.322,0.091 -0.58,0.443 -1.028,-0.402 -0.495,-0.946 0,-0.989 0.419,-1.154 -1.286,-2.621 -3.424,-4.22 -4.714,-6.927 -0.408,0.165 -0.706,0.35 -1.121,-0.717 -0.293,-0.759 0,-0.889 0.448,-1.125 -0.226,-0.802 -0.383,-1.489 -0.494,-2.148 -0.111,0.013 -0.763,0.157 -0.86,-0.552 -0.147,-1.074 -0.003,-1.233 0.652,-1.304 -0.025,-0.467 -0.036,-0.974 -0.036,-1.534 0.369,-1.583 1.777,-1.898 2.597,-1.267 4.402,3.359 7.791,5.566 10.281,7.35 6.537,0.617 24.421,1.828 29.659,2.285 2.588,-0.171 10.33,6.513 10.409,8.791 0.146,4.313 0.011,7.229 -0.24,10.631 -0.208,2.778 -0.488,5.881 -0.75,10.331 l 1.216,0.387 0.099,9.312 2.469,-0.128 c 0,0 -0.044,-0.014 0.275,1.053 6.336,-0.688 18.262,-2.573 26.203,-2.021 1.489,0.1 2.886,-0.465 3.861,-1.555 2.031,-1.705 16.835,-3.266 29.2,-3.344 1.544,-4.156 4.872,-4.923 4.872,-4.923 0.268,-0.157 0.472,0.014 1.176,0.337 0.394,-0.415 0.615,-0.637 1.346,-0.257 0.582,0.307 0.566,0.579 0.372,1.053 l 0.588,0.372 c 0.371,-0.387 0.709,-0.595 1.264,-0.237 0.53,0.352 0.608,0.502 0.207,1.111 1.257,0.823 8.497,6.247 8.497,6.247 0.265,-0.265 0.423,-0.408 0.582,-0.38 0.22,0.043 0.936,0.574 1.048,0.817 0.09,0.207 -0.114,0.452 -0.342,0.731 l 1.244,0.967 c 0.215,-0.279 0.395,-0.437 0.556,-0.387 0.244,0.085 0.597,0.373 0.755,0.716 0.082,0.173 -0.136,0.451 -0.322,0.71 l 0.82,1.003 c -0.322,1.44 -1.744,1.275 -2.993,1.189 -3.114,-0.236 -12.012,-1.569 -15.404,-1.411 -6.353,2.113 -30.497,11.14 -31.923,11.67 -1.547,0.58 -2.9,0.737 -4.548,0.687 -6.513,3.489 -18.817,6.161 -19.938,6.47 -0.326,0.092 -0.201,0.623 -0.301,1.024 0,0 -5.347,0.975 -9.704,0.938 0.814,3.138 1.989,12.638 1.992,15.511 0.709,-0.431 1.168,-0.652 1.996,-0.739 1.526,-0.164 3.119,0.946 5.053,1.734 1.01,0.408 1.154,-0.186 1.734,0.172 1.29,0.802 1.934,3.138 3.841,4.556 1.207,0.974 2.463,0.666 2.979,1.777 0.86,1.856 0.438,3.159 0.079,5.13 -0.537,2.965 -1.179,4.993 -3.543,6.869 -1.869,1.484 -3.384,2.007 -5.773,2.042 -2.805,0.036 -7.505,-1.332 -10.065,-7.815 -2.881,1.654 -3.984,2.478 -7.047,3.574 -5.566,1.992 -23.093,-1.862 -25.056,-2.765 0.154,-0.91 0.147,-1.719 0.147,-1.719 0,0 -2.142,-0.072 -2.98,-1.29 -4.122,-5.982 -8.854,-14.372 -8.854,-14.372 -1.71,-0.343 -2.841,-1.575 -3.647,-3.266 -0.838,-1.762 -1.608,-1.984 -3.356,-3.109 -1.207,-0.408 -0.767,-1.741 -0.079,-1.69 1.265,0.078 2.389,0.802 3.678,1.769 -0.694,-2.128 -3.194,-3.625 -3.266,-4.485 0.254,-1.16 2.949,-2.758 6.451,-0.093 1.117,0.853 2.325,1.583 3.077,2.686 0.444,0.53 0.676,2.845 1.172,4.521 0.779,0.358 6.697,5.753 10.957,10.058 0,0 8.725,1.763 12.888,2.415 0,0 -3.235,-1.541 -6.455,-2.651 C -11.605,41.278 -11.186,32.46 -8.356,31.55 -10.56,27.588 -5.491,11.347 -2.812,4.527 l 1.316,-0.221 c 0,0 0.529,-1.52 1.496,-4.306 m 141.862,64.897 c -9.371,0 -16.965,-7.593 -16.965,-16.963 0,-9.37 7.594,-16.974 16.965,-16.974 0.36,0 0.703,0.011 1.057,0.033 l -0.011,-1.075 V 0 -26.429 c 0,-6.56 -5.32,-11.878 -11.879,-11.878 h -166.29 c -6.562,0 -11.881,5.318 -11.881,11.878 V 80.473 c 0,6.555 5.319,11.878 11.881,11.878 h 166.29 c 6.559,0 11.879,-5.323 11.879,-11.878 v -14.771 -0.79 z"
             style="fill:#d81a22;fill-opacity:1;fill-rule:nonzero;stroke:none"
             id="path853" /></g><g
           id="g855"
           transform="translate(499.9551,344.8818)"><path
             d="m 0,0 c 0,-5.954 -4.696,-10.783 -10.49,-10.783 -5.794,0 -10.49,4.829 -10.49,10.783 0,5.954 4.696,10.782 10.49,10.782 C -4.696,10.782 0,5.954 0,0"
             style="fill:#898888;fill-opacity:1;fill-rule:nonzero;stroke:none"
             id="path857" /></g><g
           id="g859"
           transform="translate(303.729,232.793)"><path
             d="m 0,0 v -7.863 h 6.574 c 1.289,0 2.276,0.342 2.965,1.031 0.774,0.773 1.16,1.718 1.16,2.836 0,1.202 -0.344,2.147 -1.031,2.836 C 8.895,-0.387 7.863,0 6.574,0 Z M 0,9.281 V 2.449 h 6.961 c 0.858,0 1.589,0.3 2.191,0.903 0.687,0.686 1.032,1.588 1.032,2.707 0,0.944 -0.345,1.76 -1.032,2.449 C 8.637,9.023 7.992,9.281 7.219,9.281 Z M -2.965,11.73 H 7.348 c 1.718,0 3.136,-0.559 4.254,-1.675 1.031,-1.032 1.546,-2.408 1.546,-4.125 0,-1.376 -0.473,-2.536 -1.418,-3.481 -0.515,-0.515 -1.16,-0.902 -1.933,-1.16 1.031,-0.345 1.847,-0.817 2.449,-1.418 1.031,-1.031 1.547,-2.32 1.547,-3.867 0,-1.892 -0.645,-3.481 -1.934,-4.77 -1.031,-1.031 -2.578,-1.547 -4.64,-1.547 H -2.965 Z"
             style="fill:#000000;fill-opacity:1;fill-rule:nonzero;stroke:none"
             id="path861" /></g><g
           id="g863"
           transform="translate(321.9048,244.5234)"><path
             d="m 0,0 h 2.965 v -15.469 c 0,-1.204 0.387,-2.191 1.16,-2.965 0.945,-0.946 2.32,-1.418 4.125,-1.418 1.805,0 3.178,0.472 4.125,1.418 0.773,0.774 1.16,1.761 1.16,2.965 V 0 H 16.5 v -15.598 c 0,-1.891 -0.602,-3.438 -1.805,-4.64 -1.375,-1.376 -3.525,-2.063 -6.445,-2.063 -2.922,0 -5.072,0.687 -6.445,2.063 C 0.6,-19.036 0,-17.489 0,-15.598 Z"
             style="fill:#000000;fill-opacity:1;fill-rule:nonzero;stroke:none"
             id="path865" /></g><g
           id="g867"
           transform="translate(343.0454,244.5234)"><path
             d="M 0,0 H 3.223 L 13.535,-17.402 V 0 H 16.5 V -22.043 H 13.277 L 2.965,-4.641 V -22.043 H 0 Z"
             style="fill:#000000;fill-opacity:1;fill-rule:nonzero;stroke:none"
             id="path869" /></g><g
           id="g871"
           transform="translate(367.022,242.0742)"><path
             d="m 0,0 v -17.145 h 4.641 c 1.631,0 2.964,0.516 3.996,1.547 1.632,1.632 2.449,3.91 2.449,6.832 0,3.094 -0.773,5.414 -2.32,6.961 C 7.562,-0.603 6.188,0 4.641,0 Z M -2.965,2.449 H 4.77 c 2.578,0 4.769,-0.902 6.574,-2.707 1.889,-1.891 2.836,-4.727 2.836,-8.508 0,-3.609 -0.99,-6.403 -2.965,-8.379 -1.634,-1.633 -3.782,-2.449 -6.445,-2.449 h -7.735 z"
             style="fill:#000000;fill-opacity:1;fill-rule:nonzero;stroke:none"
             id="path873" /></g><g
           id="g875"
           transform="translate(385.4556,244.5234)"><path
             d="M 0,0 H 14.179 V -2.449 H 2.965 V -9.281 H 13.406 V -11.73 H 2.965 v -7.864 h 11.859 v -2.449 H 0 Z"
             style="fill:#000000;fill-opacity:1;fill-rule:nonzero;stroke:none"
             id="path877" /></g><g
           id="g879"
           transform="translate(406.209,242.9766)"><path
             d="m 0,0 c 1.203,1.202 3.051,1.805 5.543,1.805 2.664,0 4.684,-0.689 6.059,-2.063 1.203,-1.204 1.804,-2.622 1.804,-4.254 h -2.965 c 0,1.032 -0.343,1.89 -1.031,2.578 C 8.637,-1.16 7.434,-0.773 5.801,-0.773 3.996,-0.773 2.75,-1.118 2.063,-1.805 1.461,-2.407 1.16,-3.094 1.16,-3.867 c 0,-0.774 0.172,-1.333 0.516,-1.676 0.429,-0.431 1.203,-0.86 2.32,-1.289 1.977,-0.86 4.211,-1.849 6.703,-2.965 0.688,-0.258 1.332,-0.688 1.934,-1.289 0.945,-0.946 1.418,-2.062 1.418,-3.352 0,-1.719 -0.602,-3.18 -1.805,-4.382 -1.289,-1.289 -3.394,-1.934 -6.316,-1.934 -2.836,0 -5.028,0.774 -6.575,2.32 -1.117,1.117 -1.675,2.749 -1.675,4.899 h 2.965 c 0,-1.547 0.343,-2.665 1.031,-3.352 0.945,-0.946 2.406,-1.418 4.383,-1.418 1.804,0 3.136,0.429 3.996,1.289 0.687,0.687 1.031,1.374 1.031,2.063 0,0.773 -0.258,1.418 -0.773,1.933 -0.43,0.429 -1.118,0.859 -2.063,1.29 -0.859,0.428 -1.977,0.944 -3.352,1.546 -1.546,0.687 -2.793,1.246 -3.738,1.676 -0.687,0.258 -1.289,0.645 -1.805,1.16 -0.773,0.774 -1.16,1.805 -1.16,3.094 0,1.632 0.602,3.05 1.805,4.254"
             style="fill:#000000;fill-opacity:1;fill-rule:nonzero;stroke:none"
             id="path881" /></g><g
           id="g883"
           transform="translate(437.7422,222.0762)"><path
             d="m 0,0 h -13.535 v 22.952 h 4.736 V 3.731 l 8.799,0 z"
             style="fill:#000000;fill-opacity:1;fill-rule:nonzero;stroke:none"
             id="path885" /></g><path
           d="m 441.965,245.028 h 4.736 v -22.952 h -4.736 z"
           style="fill:#000000;fill-opacity:1;fill-rule:nonzero;stroke:none"
           id="path887" /><g
           id="g889"
           transform="translate(470.3477,222.9727)"><path
             d="m 0,0 c -1.439,-0.509 -4.223,-1.135 -7.008,-1.135 -3.742,0 -6.59,0.896 -8.67,2.806 -2.113,1.939 -3.328,5.073 -3.328,8.715 0,7.76 5.535,11.908 12.608,11.908 2.496,0 4.574,-0.418 5.759,-0.954 l -0.992,-3.642 c -1.121,0.477 -2.527,0.836 -4.703,0.836 -4.385,0 -7.713,-2.508 -7.713,-8.058 0,-5.314 3.041,-7.998 7.104,-7.998 1.152,0 2.015,0.148 2.431,0.327 v 5.611 h -3.551 v 3.491 H 0 Z"
             style="fill:#000000;fill-opacity:1;fill-rule:nonzero;stroke:none"
             id="path891" /></g><g
           id="g893"
           transform="translate(486.252,231.4785)"><path
             d="M 0,0 -1.473,5.223 C -1.855,6.655 -2.271,8.506 -2.592,9.908 H -2.688 C -3.008,8.477 -3.424,6.595 -3.775,5.252 L -5.248,0 Z M 7.391,-9.402 H 2.432 l -1.76,6.058 H -5.92 l -1.695,-6.058 h -4.799 l 6.975,22.952 h 5.951 z"
             style="fill:#000000;fill-opacity:1;fill-rule:nonzero;stroke:none"
             id="path895" /></g></g></g></g></svg>
