<?xml version="1.0" encoding="UTF-8" standalone="no"?>
<svg
   xmlns:dc="http://purl.org/dc/elements/1.1/"
   xmlns:cc="http://creativecommons.org/ns#"
   xmlns:rdf="http://www.w3.org/1999/02/22-rdf-syntax-ns#"
   xmlns:svg="http://www.w3.org/2000/svg"
   xmlns="http://www.w3.org/2000/svg"
   xmlns:sodipodi="http://sodipodi.sourceforge.net/DTD/sodipodi-0.dtd"
   xmlns:inkscape="http://www.inkscape.org/namespaces/inkscape"
   version="1.1"
   id="svg833"
   xml:space="preserve"
   width="1122.876"
   height="1580.0667"
   viewBox="0 0 1122.876 1580.0667"
   sodipodi:docname="ligue-1.svg"
   inkscape:version="1.0.1 (c497b03c, 2020-09-10)"><metadata
     id="metadata839"><rdf:RDF><cc:Work
         rdf:about=""><dc:format>image/svg+xml</dc:format><dc:type
           rdf:resource="http://purl.org/dc/dcmitype/StillImage" /><dc:title></dc:title></cc:Work></rdf:RDF></metadata><defs
     id="defs837"><radialGradient
       fx="0"
       fy="0"
       cx="0"
       cy="0"
       r="1"
       gradientUnits="userSpaceOnUse"
       gradientTransform="matrix(454.80405,0,0,454.80405,542.11279,956.08105)"
       spreadMethod="pad"
       id="radialGradient859"><stop
         style="stop-opacity:1;stop-color:#a7bdc8"
         offset="0"
         id="stop855" /><stop
         style="stop-opacity:1;stop-color:#465b65"
         offset="1"
         id="stop857" /></radialGradient><radialGradient
       fx="0"
       fy="0"
       cx="0"
       cy="0"
       r="1"
       gradientUnits="userSpaceOnUse"
       gradientTransform="matrix(454.81274,0,0,454.81274,542.12158,956.08203)"
       spreadMethod="pad"
       id="radialGradient879"><stop
         style="stop-opacity:1;stop-color:#a7bdc8"
         offset="0"
         id="stop875" /><stop
         style="stop-opacity:1;stop-color:#465b65"
         offset="1"
         id="stop877" /></radialGradient><radialGradient
       fx="0"
       fy="0"
       cx="0"
       cy="0"
       r="1"
       gradientUnits="userSpaceOnUse"
       gradientTransform="matrix(454.82404,0,0,454.82404,542.11279,956.08008)"
       spreadMethod="pad"
       id="radialGradient899"><stop
         style="stop-opacity:1;stop-color:#a7bdc8"
         offset="0"
         id="stop895" /><stop
         style="stop-opacity:1;stop-color:#465b65"
         offset="1"
         id="stop897" /></radialGradient><radialGradient
       fx="0"
       fy="0"
       cx="0"
       cy="0"
       r="1"
       gradientUnits="userSpaceOnUse"
       gradientTransform="matrix(454.80649,0,0,454.80649,542.11475,956.08008)"
       spreadMethod="pad"
       id="radialGradient919"><stop
         style="stop-opacity:1;stop-color:#a7bdc8"
         offset="0"
         id="stop915" /><stop
         style="stop-opacity:1;stop-color:#465b65"
         offset="1"
         id="stop917" /></radialGradient><radialGradient
       fx="0"
       fy="0"
       cx="0"
       cy="0"
       r="1"
       gradientUnits="userSpaceOnUse"
       gradientTransform="matrix(454.80612,0,0,454.80612,542.11572,956.08008)"
       spreadMethod="pad"
       id="radialGradient939"><stop
         style="stop-opacity:1;stop-color:#a7bdc8"
         offset="0"
         id="stop935" /><stop
         style="stop-opacity:1;stop-color:#465b65"
         offset="1"
         id="stop937" /></radialGradient><radialGradient
       fx="0"
       fy="0"
       cx="0"
       cy="0"
       r="1"
       gradientUnits="userSpaceOnUse"
       gradientTransform="matrix(454.81067,0,0,454.81067,542.11475,956.07715)"
       spreadMethod="pad"
       id="radialGradient959"><stop
         style="stop-opacity:1;stop-color:#a7bdc8"
         offset="0"
         id="stop955" /><stop
         style="stop-opacity:1;stop-color:#465b65"
         offset="1"
         id="stop957" /></radialGradient><radialGradient
       fx="0"
       fy="0"
       cx="0"
       cy="0"
       r="1"
       gradientUnits="userSpaceOnUse"
       gradientTransform="matrix(454.81564,0,0,454.81564,542.11865,956.0791)"
       spreadMethod="pad"
       id="radialGradient979"><stop
         style="stop-opacity:1;stop-color:#a7bdc8"
         offset="0"
         id="stop975" /><stop
         style="stop-opacity:1;stop-color:#465b65"
         offset="1"
         id="stop977" /></radialGradient><radialGradient
       fx="0"
       fy="0"
       cx="0"
       cy="0"
       r="1"
       gradientUnits="userSpaceOnUse"
       gradientTransform="matrix(454.81711,0,0,454.81711,542.10791,956.08105)"
       spreadMethod="pad"
       id="radialGradient999"><stop
         style="stop-opacity:1;stop-color:#a7bdc8"
         offset="0"
         id="stop995" /><stop
         style="stop-opacity:1;stop-color:#465b65"
         offset="1"
         id="stop997" /></radialGradient><radialGradient
       fx="0"
       fy="0"
       cx="0"
       cy="0"
       r="1"
       gradientUnits="userSpaceOnUse"
       gradientTransform="matrix(454.80386,0,0,454.80386,542.11768,956.07715)"
       spreadMethod="pad"
       id="radialGradient1019"><stop
         style="stop-opacity:1;stop-color:#a7bdc8"
         offset="0"
         id="stop1015" /><stop
         style="stop-opacity:1;stop-color:#465b65"
         offset="1"
         id="stop1017" /></radialGradient><radialGradient
       fx="0"
       fy="0"
       cx="0"
       cy="0"
       r="1"
       gradientUnits="userSpaceOnUse"
       gradientTransform="matrix(454.79376,0,0,454.79376,542.11475,956.07031)"
       spreadMethod="pad"
       id="radialGradient1039"><stop
         style="stop-opacity:1;stop-color:#a7bdc8"
         offset="0"
         id="stop1035" /><stop
         style="stop-opacity:1;stop-color:#465b65"
         offset="1"
         id="stop1037" /></radialGradient><clipPath
       clipPathUnits="userSpaceOnUse"
       id="clipPath1049"><path
         d="M 0,1185.049 H 842.157 V 0 H 0 Z"
         id="path1047" /></clipPath></defs><sodipodi:namedview
     pagecolor="#ffffff"
     bordercolor="#666666"
     borderopacity="1"
     objecttolerance="10"
     gridtolerance="10"
     guidetolerance="10"
     inkscape:pageopacity="0"
     inkscape:pageshadow="2"
     inkscape:window-width="820"
     inkscape:window-height="480"
     id="namedview835"
     showgrid="false"
     inkscape:zoom="0.59490096"
     inkscape:cx="561.43799"
     inkscape:cy="790.03333"
     inkscape:window-x="0"
     inkscape:window-y="25"
     inkscape:window-maximized="0"
     inkscape:current-layer="g841" /><g
     id="g841"
     inkscape:groupmode="layer"
     inkscape:label="ligue-1"
     transform="matrix(1.3333333,0,0,-1.3333333,0,1580.0667)"><g
       id="g843"><g
         id="g845"><g
           id="g851"><g
             id="g853"><path
               d="m 182.794,946.661 c -21.377,-2.373 -37.242,-28.871 -47.341,-61.265 v 0 c 21.082,11.965 49.257,18.325 49.257,18.325 v 0 c 0,0 27.898,-31.077 53.486,-98.763 v 0 c 0,0 0.099,-74.148 -12.355,-114.452 v 0 c 0,0 -35.042,-11.107 -62.674,-3.524 v 0 c 17.912,-38.779 41.006,-48.933 65.934,-46.164 v 0 c 40.956,4.549 58.429,86.284 50.71,160.948 v 0 c -8.087,78.211 -53.105,145.113 -93.133,145.108 v 0 c -1.299,0 -2.596,-0.071 -3.884,-0.213"
               style="fill:url(#radialGradient859);stroke:none"
               id="path861" /></g></g></g></g><g
       id="g863"><g
         id="g865"><g
           id="g871"><g
             id="g873"><path
               d="m 154.495,842.621 c -16.107,-1.93 -26.102,-29.053 -22.311,-60.562 v 0 c 3.79,-31.513 19.929,-55.493 36.036,-53.555 v 0 c 16.111,1.944 26.106,29.059 22.311,60.574 v 0 c -3.647,30.317 -18.721,53.655 -34.201,53.654 v 0 c -0.611,0 -1.224,-0.037 -1.835,-0.111"
               style="fill:url(#radialGradient879);stroke:none"
               id="path881" /></g></g></g></g><g
       id="g883"><g
         id="g885"><g
           id="g891"><g
             id="g893"><path
               d="m 477.227,930.763 c -28.973,-3.327 -49.726,-29.921 -46.342,-59.397 v 0 c 3.371,-29.49 29.6,-50.699 58.58,-47.373 v 0 c 28.966,3.32 49.721,29.909 46.338,59.398 v 0 c -3.139,27.437 -26.073,47.717 -52.596,47.715 v 0 c -1.975,0 -3.973,-0.113 -5.98,-0.343"
               style="fill:url(#radialGradient899);stroke:none"
               id="path901" /></g></g></g></g><g
       id="g903"><g
         id="g905"><g
           id="g911"><g
             id="g913"><path
               d="M 460.518,1038.664 C 376.005,1028.974 315.822,948.5 326.088,858.923 v 0 c 8.827,-77.021 66.896,-135.701 136.751,-144.459 v 0 c 0,0 -1.342,15.436 -3.108,30.808 v 0 c -1.75,15.286 -3.92,30.368 -3.92,30.368 v 0 l -18.305,-1.959 c 0,0 -21.111,20.182 -37.577,43.583 v 0 c -15.4,21.896 -26.227,47.119 -26.227,47.119 v 0 c 0,0 7.801,27.68 18.125,53.158 v 0 c 10.491,25.912 23.487,49.638 23.487,49.638 v 0 c 0,0 24.646,5.836 50.093,8.757 v 0 c 27.201,3.113 55.324,3.331 55.324,3.331 v 0 c 0,0 18.978,-18.757 34.733,-41.161 v 0 c 16.146,-22.948 29.072,-49.542 29.072,-49.542 v 0 c 0,0 -3.492,-25.338 -13.829,-50.854 v 0 c -10.48,-25.874 -27.785,-51.934 -27.785,-51.934 v 0 l -16.459,-2.727 c 0,0 2.188,-14.522 3.283,-29.434 v 0 c 1.175,-15.721 1.906,-31.262 1.906,-31.262 v 0 c 66.053,24.337 109.329,94.636 100.497,171.665 v 0 c -9.584,83.605 -77.182,145.6 -154.877,145.606 v 0 c -5.542,0 -11.126,-0.315 -16.754,-0.96"
               style="fill:url(#radialGradient919);stroke:none"
               id="path921" /></g></g></g></g><g
       id="g923"><g
         id="g925"><g
           id="g931"><g
             id="g933"><path
               d="m 530.741,1092.239 c -0.456,-1.68 31.755,-29.132 70.65,-64.145 v 0 c 38.904,-35.003 70.723,-63.541 71.426,-61.392 v 0 c 0.504,1.537 -20.556,40.045 -60.689,75.429 v 0 c -24.913,21.965 -47.727,34.472 -56.477,38.982 v 0 c -13.85,7.14 -23.068,11.226 -24.666,11.226 v 0 c -0.144,0 -0.226,-0.033 -0.244,-0.1"
               style="fill:url(#radialGradient939);stroke:none"
               id="path941" /></g></g></g></g><g
       id="g943"><g
         id="g945"><g
           id="g951"><g
             id="g953"><path
               d="m 322.347,1098.211 c -20.989,-7.339 -38.883,-16.448 -55.088,-26.049 v 0 c 21.888,4.317 64.332,13.623 103.833,38.532 v 0 c -12.375,-1.581 -32.386,-6.759 -48.745,-12.483"
               style="fill:url(#radialGradient959);stroke:none"
               id="path961" /></g></g></g></g><g
       id="g963"><g
         id="g965"><g
           id="g971"><g
             id="g973"><path
               d="m 402.439,1114.254 c 6.89,-1.2 14.157,-3.294 19.062,-6.405 v 0 l -75.68,-34 -90.505,-23.762 c 0,0 -5.443,0.403 -11.315,6.274 v 0 c -23.501,-17.935 -38.444,-34.056 -38.011,-37.858 v 0 c 0.883,-7.746 62.527,6.565 133.995,31.143 v 0 c 71.467,24.567 127.34,50.479 124.8,57.852 v 0 c -1.25,3.638 -19.513,7.309 -44.934,7.309 v 0 c -5.502,0 -11.339,-0.172 -17.412,-0.553"
               style="fill:url(#radialGradient979);stroke:none"
               id="path981" /></g></g></g></g><g
       id="g983"><g
         id="g985"><g
           id="g991"><g
             id="g993"><path
               d="M 668.307,789.215 C 658.964,722.88 656.901,667.777 663.805,667.371 v 0 c 11.163,-0.668 37.553,58.576 45.482,114.231 v 0 c 9.504,66.682 -7.626,124.578 -11.683,125.974 v 0 c -0.131,0.046 -0.265,0.068 -0.402,0.068 v 0 c -6.668,-0.005 -19.758,-53.429 -28.895,-118.429"
               style="fill:url(#radialGradient999);stroke:none"
               id="path1001" /></g></g></g></g><g
       id="g1003"><g
         id="g1005"><g
           id="g1011"><g
             id="g1013"><path
               d="M 450.68,666.115 C 370.428,653.856 305.654,617.054 315.863,577.138 v 0 c 4.624,-18.083 21.328,-31.131 54.583,-37.884 v 0 c -11.86,19.753 -14.218,43.356 -14.218,43.356 v 0 c 0,0 30.576,23.738 100.096,50.087 v 0 c 0,0 64.616,-6.046 105.887,-17.026 v 0 c 0,0 3.455,-17.634 -1.279,-45.892 v 0 c 28.05,18.468 37.969,35.539 32.809,56.734 v 0 c -5.48,22.505 -49.363,42.46 -105.753,42.459 v 0 c -11.955,0 -24.475,-0.897 -37.308,-2.857"
               style="fill:url(#radialGradient1019);stroke:none"
               id="path1021" /></g></g></g></g><g
       id="g1023"><g
         id="g1025"><g
           id="g1031"><g
             id="g1033"><path
               d="m 461.777,590.818 c -31.345,-5.016 -54.901,-20.604 -52.626,-34.806 v 0 c 2.265,-14.208 29.522,-21.66 60.861,-16.646 v 0 c 31.346,5.014 54.907,20.601 52.637,34.807 v 0 c -1.801,11.208 -19.119,18.212 -41.733,18.211 v 0 c -6.063,0 -12.512,-0.504 -19.139,-1.566"
               style="fill:url(#radialGradient1039);stroke:none"
               id="path1041" /></g></g></g></g><g
       id="g1043"><g
         id="g1045"
         clip-path="url(#clipPath1049)"><g
           id="g1051"
           transform="translate(83.5361,331.335)"><path
             d="M 0,0 V 104.07 H 27.165 V 23.64 H 60.044 V -0.001 L 0,-0.001 Z"
             style="fill:#465b65;fill-opacity:1;fill-rule:nonzero;stroke:none"
             id="path1053" /></g><path
           d="m 187.463,435.405 h 27.171 v -104.07 h -27.171 z"
           style="fill:#465b65;fill-opacity:1;fill-rule:nonzero;stroke:none"
           id="path1055" /><g
           id="g1057"
           transform="translate(313.5371,439.207)"><path
             d="M 0,0 C 20.92,0 36.267,-8.151 47.01,-26.085 L 25.265,-38.038 c 0,0 -7.061,14.394 -25.536,14.394 -17.804,0 -25.808,-14.53 -25.808,-33.416 0,-17.661 8.146,-31.793 28.251,-31.793 11.547,0 22.146,8.832 23.092,18.477 H 1.356 v 21.743 h 52.171 v -5.711 c 0,-30.836 -14.261,-57.328 -53.256,-57.328 -33.15,0 -54.342,25.401 -54.342,55.698 C -54.07,-24.05 -30.292,0 0,0"
             style="fill:#465b65;fill-opacity:1;fill-rule:nonzero;stroke:none"
             id="path1059" /></g><g
           id="g1061"
           transform="translate(438.1138,435.4053)"><path
             d="m 0,0 v -63.859 c 0,-13.855 8.426,-18.748 18.744,-18.748 9.918,0 18.477,5.302 18.477,17.39 V 0.001 H 64.67 v -66.575 c 0,-23.771 -16.176,-40.482 -46.469,-40.482 -22.947,0 -45.368,11.953 -45.368,37.495 V 0.002 L 0,0.002 Z"
             style="fill:#465b65;fill-opacity:1;fill-rule:nonzero;stroke:none"
             id="path1063" /></g><g
           id="g1065"
           transform="translate(553.1821,435.4053)"><path
             d="M 0,0 H 60.326 V -23.642 H 27.178 V -40.491 H 58.43 V -63.583 H 27.178 v -17.392 h 33.691 v -23.097 H 0 Z"
             style="fill:#465b65;fill-opacity:1;fill-rule:nonzero;stroke:none"
             id="path1067" /></g><g
           id="g1069"
           transform="translate(717.8364,435.4053)"><path
             d="M 0,0 H 42.125 V -104.07 H 14.949 v 81.787 l -14.949,0 z"
             style="fill:#465b65;fill-opacity:1;fill-rule:nonzero;stroke:none"
             id="path1071" /></g><g
           id="g1073"
           transform="translate(421.7524,69.207)"><path
             d="m 0,0 c -40.106,0 -72.632,32.52 -72.632,72.62 0,40.116 32.524,72.637 72.632,72.637 40.102,0 72.619,-32.521 72.619,-72.637 C 72.619,32.519 40.1,0 0,0 m 198.057,75.598 c 0,0 -93.006,-1.701 -138.662,50.551 -0.104,0.105 -0.198,0.226 -0.297,0.324 -0.061,0.077 -0.133,0.148 -0.198,0.214 -0.054,0.066 -0.103,0.115 -0.17,0.165 -9.945,10.769 -22.798,18.789 -37.335,22.804 -0.334,0.105 -0.67,0.202 -1.016,0.29 -0.559,0.149 -1.113,0.281 -1.678,0.417 -0.846,0.203 -1.685,0.407 -2.547,0.582 -0.091,0.017 -0.191,0.043 -0.291,0.056 -3.789,0.772 -7.679,1.276 -11.728,1.47 -1.371,0.071 -2.748,0.11 -4.137,0.11 -1.426,0 -2.831,-0.039 -4.235,-0.115 -0.476,-0.018 -0.932,-0.072 -1.403,-0.105 -0.934,-0.06 -1.855,-0.132 -2.766,-0.214 -0.564,-0.065 -1.107,-0.142 -1.661,-0.209 -0.823,-0.115 -1.641,-0.213 -2.447,-0.339 -0.592,-0.088 -1.18,-0.209 -1.755,-0.307 -0.773,-0.145 -1.53,-0.275 -2.282,-0.439 -0.605,-0.122 -1.201,-0.269 -1.805,-0.407 -0.725,-0.175 -1.448,-0.34 -2.167,-0.53 -0.609,-0.172 -1.201,-0.342 -1.794,-0.507 -0.709,-0.219 -1.404,-0.422 -2.097,-0.636 -0.597,-0.186 -1.194,-0.395 -1.798,-0.607 -0.669,-0.23 -1.333,-0.468 -1.997,-0.726 -0.604,-0.213 -1.19,-0.455 -1.778,-0.696 -0.652,-0.259 -1.3,-0.521 -1.936,-0.812 -0.582,-0.247 -1.174,-0.516 -1.75,-0.779 -0.631,-0.297 -1.251,-0.592 -1.866,-0.905 -0.576,-0.279 -1.145,-0.575 -1.716,-0.86 -0.605,-0.335 -1.207,-0.654 -1.812,-0.993 -0.554,-0.313 -1.112,-0.631 -1.661,-0.96 -0.587,-0.341 -1.157,-0.708 -1.739,-1.07 -0.548,-0.351 -1.081,-0.686 -1.629,-1.043 -0.566,-0.373 -1.125,-0.762 -1.68,-1.145 -0.525,-0.373 -1.048,-0.746 -1.568,-1.125 -0.543,-0.389 -1.071,-0.806 -1.614,-1.224 -0.509,-0.39 -1.008,-0.789 -1.508,-1.185 -0.533,-0.428 -1.053,-0.877 -1.569,-1.328 -0.471,-0.405 -0.96,-0.816 -1.426,-1.245 -0.522,-0.461 -1.026,-0.937 -1.531,-1.421 -0.45,-0.427 -0.899,-0.85 -1.339,-1.284 -0.509,-0.515 -1.014,-1.042 -1.513,-1.567 -0.357,-0.367 -0.719,-0.726 -1.065,-1.099 0,0 -0.033,-0.054 -0.044,-0.059 -1.163,-1.279 -2.275,-2.59 -3.351,-3.917 C -73.534,110.621 -113.74,74.92 -198.066,74.92 h -140.027 v -5.268 h 140.029 c 0,0 92.867,1.701 138.564,-50.436 0.148,-0.153 0.291,-0.318 0.433,-0.478 0.051,-0.06 0.1,-0.121 0.154,-0.181 0.049,-0.038 0.087,-0.077 0.131,-0.126 9.947,-10.785 22.844,-18.806 37.38,-22.849 0.335,-0.094 0.669,-0.191 1.011,-0.279 0.554,-0.154 1.125,-0.274 1.683,-0.407 0.833,-0.208 1.69,-0.416 2.545,-0.585 0.093,-0.034 0.198,-0.04 0.296,-0.055 3.781,-0.779 7.681,-1.284 11.725,-1.487 1.371,-0.072 2.748,-0.1 4.142,-0.1 1.414,0 2.818,0.027 4.229,0.115 0.466,0.017 0.933,0.071 1.394,0.099 0.926,0.071 1.859,0.133 2.781,0.225 0.543,0.066 1.086,0.144 1.635,0.204 0.828,0.109 1.662,0.213 2.479,0.329 0.574,0.098 1.136,0.209 1.711,0.317 0.779,0.144 1.562,0.274 2.332,0.444 0.582,0.121 1.156,0.264 1.732,0.396 0.746,0.181 1.498,0.351 2.238,0.548 0.592,0.148 1.158,0.329 1.733,0.494 0.724,0.208 1.443,0.417 2.162,0.652 0.582,0.176 1.146,0.373 1.717,0.565 0.697,0.252 1.404,0.505 2.095,0.757 0.565,0.214 1.119,0.438 1.68,0.665 0.691,0.273 1.371,0.553 2.045,0.85 0.549,0.246 1.1,0.488 1.642,0.746 0.657,0.313 1.329,0.619 1.991,0.954 0.525,0.263 1.064,0.537 1.584,0.812 0.66,0.346 1.302,0.697 1.943,1.07 0.516,0.278 1.031,0.576 1.529,0.889 0.647,0.361 1.274,0.751 1.899,1.141 0.488,0.318 0.986,0.631 1.476,0.955 0.625,0.411 1.233,0.822 1.842,1.25 0.473,0.34 0.938,0.664 1.406,1.004 0.614,0.45 1.205,0.916 1.793,1.366 0.444,0.356 0.899,0.702 1.332,1.069 0.604,0.473 1.186,0.977 1.772,1.48 0.412,0.353 0.824,0.708 1.234,1.065 0.594,0.538 1.164,1.086 1.75,1.64 0.373,0.368 0.746,0.708 1.125,1.07 0.598,0.609 1.196,1.234 1.778,1.843 0.273,0.296 0.56,0.576 0.839,0.872 0,0 0.026,0.045 0.032,0.055 1.175,1.273 2.299,2.596 3.381,3.939 11.232,12.129 51.46,47.786 135.744,47.786 h 140.029 v 5.261 H 198.057 Z"
             style="fill:#465b65;fill-opacity:1;fill-rule:nonzero;stroke:none"
             id="path1075" /></g><g
           id="g1077"
           transform="translate(374.1523,187.5293)"><path
             d="m 0,0 c 2.451,1.94 20.725,-10.034 39.042,-27.166 0.203,-0.202 4.657,2.621 11.376,9.687 10.633,11.18 10.336,19.677 13.409,18.959 0.586,-0.142 1.49,-0.456 1.728,-1.185 1.76,-5.568 -0.685,-14.884 -4.06,-23.179 -3.803,-9.342 -8.705,-17.399 -8.705,-17.399 0,0 12.363,-16.073 15.546,-34.253 1.737,-9.863 -0.101,-18.997 -2.134,-22.399 -0.549,-0.921 -1.301,-1.284 -1.778,-1.284 -2.314,0 -0.922,6.912 -8.332,20.567 -2.08,3.839 -4.345,8.058 -8.097,12.775 -8.214,10.375 -8.137,9.547 -8.137,9.547 0,0 -7.421,-9.547 -14.937,-17.435 -2.507,-2.628 -4.938,-4.651 -7.027,-6.489 -2.759,-2.446 -5.052,-4.252 -7.204,-3.691 -0.741,0.197 -1.338,1.195 -1.179,2.066 0.203,1.114 12.82,17.275 12.853,37.393 0.022,12.995 -12.057,28.64 -18.552,36.6 C 0.795,-3.198 -2.058,-1.618 0,0"
             style="fill:#465b65;fill-opacity:1;fill-rule:nonzero;stroke:none"
             id="path1079" /></g><g
           id="g1081"
           transform="translate(448.0669,102.7676)"><path
             d="m 0,0 c 0,6.067 4.916,10.978 10.986,10.978 6.069,0 10.983,-4.91 10.983,-10.978 0,-6.072 -4.914,-10.993 -10.983,-10.993 C 4.916,-10.993 0,-6.072 0,0"
             style="fill:#465b65;fill-opacity:1;fill-rule:nonzero;stroke:none"
             id="path1083" /></g><g
           id="g1085"
           transform="translate(406.1719,175.7451)"><path
             d="m 0,0 c 0,5.618 4.548,10.153 10.154,10.153 5.612,0 10.155,-4.535 10.155,-10.153 0,-5.596 -4.543,-10.144 -10.155,-10.144 C 4.548,-10.144 0,-5.596 0,0"
             style="fill:#465b65;fill-opacity:1;fill-rule:nonzero;stroke:none"
             id="path1087" /></g></g></g></g></svg>
